@startuml

' States with labels and stereotypes
state STATE1
state STATE2 <<stereotype>>
state STATE3 : State 3
state STATE4 <<stereotype>> : State 4

' Add state to label
STATE1 : State 1

' Composite states
state STATE4 {
    state STATE5 <<end>>
    state STATE6 <<stereotype>>
    state STATE7 : State 7
    state STATE8 <<stereotype>> : State 8
    state STATE9 {

    }
    state STATE10 {
        state STATE11
        STATE1 --> STATE11
    }
}
state STATE12 {
    ' Nothing here
}

' Directional arrow transitions
[*] -right-> STATE1
STATE1 -left-> STATE2
STATE2 -up-> STATE3
STATE4 -down-> STATE5
STATE2 --> [*]

/' Choice stereotype and 
conditional transitions '/
state STATE13 <<choice>> : this is a choice
STATE13 --> STATE4 : [else]
STATE13 --> STATE3 : [a > b] text here too

/'
    Entry and
    exit states
'/
state STATE14 {
    state ENTRY <<entryPoint>> : text here too
    state EXIT <<exitPoint>>
    state IN_PIN <<inputPin>> : text here too
    state OUT_PIN <<outputPin>>
    state EXP_IN <<expansionInput>> : text here too
    state EXP_OUT <<expansionOutput>>
}

' State aliasing
state "State 15" as STATE15 <<stereotype>>
state "State 16" as STATE16
state "State 17" as STATE17 <<stereotype>> {
    state STATE18
}
state "State 19" as STATE19 <<stereotype>> {
    STATE19 : label here
}

' Anchored notes
note right of STATE14 : this is state 14
note left of STATE14: this is state 14
' Anchored block notes
note right of STATE12
    this is state 12
    .
end note
note left of STATE12
    this is state 12

end note

' Floating note
note "this note is lost" as N1

@enduml